<svg width="90" height="100" viewBox="0 0 90 100" fill="none" stroke="currentColor" xmlns="http://www.w3.org/2000/svg">
<path d="M65 75C67.0833 75 68.8542 74.2708 70.3125 72.8125C71.7708 71.3542 72.5 69.5833 72.5 67.5C72.5 65.4167 71.7708 63.6458 70.3125 62.1875C68.8542 60.7292 67.0833 60 65 60C62.9167 60 61.1458 60.7292 59.6875 62.1875C58.2292 63.6458 57.5 65.4167 57.5 67.5C57.5 69.5833 58.2292 71.3542 59.6875 72.8125C61.1458 74.2708 62.9167 75 65 75ZM65 90C67.5833 90 69.9583 89.3958 72.125 88.1875C74.2917 86.9792 76.0417 85.375 77.375 83.375C75.5417 82.2917 73.5833 81.4583 71.5 80.875C69.4167 80.2917 67.25 80 65 80C62.75 80 60.5833 80.2917 58.5 80.875C56.4167 81.4583 54.4583 82.2917 52.625 83.375C53.9583 85.375 55.7083 86.9792 57.875 88.1875C60.0417 89.3958 62.4167 90 65 90ZM40 100C28.4167 97.0833 18.8542 90.4375 11.3125 80.0625C3.77083 69.6875 0 58.1667 0 45.5V15L40 0L80 15V43.375C78.4167 42.7083 76.7917 42.1042 75.125 41.5625C73.4583 41.0208 71.75 40.625 70 40.375V22L40 10.75L10 22V45.5C10 49.4167 10.5208 53.3333 11.5625 57.25C12.6042 61.1667 14.0625 64.8958 15.9375 68.4375C17.8125 71.9792 20.0833 75.25 22.75 78.25C25.4167 81.25 28.375 83.75 31.625 85.75C32.5417 88.4167 33.75 90.9583 35.25 93.375C36.75 95.7917 38.4583 97.9583 40.375 99.875C40.2917 99.875 40.2292 99.8958 40.1875 99.9375C40.1458 99.9792 40.0833 100 40 100ZM65 100C58.0833 100 52.1875 97.5625 47.3125 92.6875C42.4375 87.8125 40 81.9167 40 75C40 68.0833 42.4375 62.1875 47.3125 57.3125C52.1875 52.4375 58.0833 50 65 50C71.9167 50 77.8125 52.4375 82.6875 57.3125C87.5625 62.1875 90 68.0833 90 75C90 81.9167 87.5625 87.8125 82.6875 92.6875C77.8125 97.5625 71.9167 100 65 100Z" fill="currentColor" stroke="currentColor" />
</svg>
