<svg width="110" height="100" viewBox="0 0 110 100" fill="currentColor" stroke="currentColor" xmlns="http://www.w3.org/2000/svg">
<path d="M15 100V53.125L6 60L0 52L15 40.5V25H25V32.875L55 10L110 52L104 59.875L95 53.125V100H15ZM25 90H50V70H60V90H85V45.5L55 22.625L25 45.5V90ZM15 20C15 15.8333 16.4583 12.2917 19.375 9.375C22.2917 6.45833 25.8333 5 30 5C31.4167 5 32.6042 4.52083 33.5625 3.5625C34.5208 2.60417 35 1.41667 35 0H45C45 4.16667 43.5417 7.70833 40.625 10.625C37.7083 13.5417 34.1667 15 30 15C28.5833 15 27.3958 15.4792 26.4375 16.4375C25.4792 17.3958 25 18.5833 25 20H15ZM25 90H50H60H85H55H25Z" fill="currentColor" stroke="currentColor"/>
</svg>
